<svg preserveAspectRatio="none" width="100%" height="100%" overflow="visible" style="display: block;" viewBox="0 0 25 25" fill="none" xmlns="http://www.w3.org/2000/svg">
<g id="SVG">
<path id="Page-1" d="M13.5938 25C14.0625 25 14.375 24.8437 14.7656 24.5312C15.0781 24.2187 15.2344 23.8281 15.2344 23.3594V12.8906H17.1094C17.5 12.8906 17.8125 12.8125 18.125 12.5781C18.4375 12.3438 18.5938 12.1094 18.6719 11.7188L19.2188 9.29687C19.2969 9.0625 19.2969 8.82812 19.2969 8.51562C19.2188 8.28125 19.1406 8.04688 18.9844 7.8125C18.8281 7.57812 18.6719 7.42187 18.4375 7.34375C18.2031 7.26562 17.9688 7.1875 17.7344 7.1875H15.2344V5.625H16.875C17.3438 5.625 17.6562 5.46875 18.0469 5.15625C18.3594 4.84375 18.5156 4.45312 18.5156 3.98437V1.64062C18.5156 1.17187 18.3594 0.78125 18.0469 0.46875C17.6562 0.15625 17.2656 0 16.875 0H14.8437H14.7656H14.6875H14.6094C14.2969 0 13.9062 0.078125 13.3594 0.15625C12.8125 0.234375 12.3437 0.46875 11.7969 0.78125C11.25 1.09375 10.7812 1.5625 10.3125 2.26563C9.84375 2.96875 9.53125 3.90625 9.53125 5.15625V7.26563H7.96875C7.73437 7.26563 7.57812 7.34375 7.34375 7.42188C7.10937 7.5 6.95313 7.57812 6.79688 7.73437C6.64063 7.89062 6.5625 8.04688 6.40625 8.28125C6.40625 8.4375 6.32812 8.67187 6.32812 8.90625V11.3281C6.32812 11.7969 6.48438 12.1094 6.79688 12.5C7.10938 12.8125 7.5 12.9688 7.96875 12.9688H9.60937V23.4375C9.60937 23.9063 9.76563 24.2969 10.0781 24.6094C10.3125 24.8438 10.7031 25 11.1719 25H13.5938ZM13.5938 23.4375H11.1719V11.3281H7.96875V8.90625H11.1719V5.15625C11.1719 3.51562 11.6406 2.5 12.6563 2.1875C13.6719 1.875 14.2969 1.64062 14.6094 1.64062C14.6875 1.64062 14.6875 1.64062 14.6875 1.64062H16.7969V4.0625H14.6875C14.1406 4.0625 13.75 4.21875 13.6719 4.53125C13.6719 4.84375 13.5938 5.07812 13.5938 5.07812V8.90625H17.6562L17.1094 11.3281H13.5938V23.4375Z" fill="var(--fill-0, #EFF1F4)"/>
</g>
</svg>
