<svg preserveAspectRatio="none" width="100%" height="100%" overflow="visible" style="display: block;" viewBox="0 0 25 25" fill="none" xmlns="http://www.w3.org/2000/svg">
<g id="SVG">
<path id="Page-1" d="M17.6563 24.4141H7.34375C3.28125 24.4141 0 21.1328 0 17.0703V7.92969C0 3.86719 3.28125 0.585938 7.34375 0.585938H17.6563C21.7188 0.585938 25 3.86719 25 7.92969V17.0703C25 21.1328 21.7188 24.4141 17.6563 24.4141ZM7.34375 2.30469C4.21875 2.30469 1.64062 4.88281 1.64062 8.00781V17.1484C1.64062 20.2734 4.21875 22.8516 7.34375 22.8516H17.6563C20.7813 22.8516 23.3594 20.2734 23.3594 17.1484V7.92969C23.3594 4.80469 20.7813 2.22656 17.6563 2.22656H7.34375V2.30469ZM12.5781 19.1797C9.21875 19.1797 6.48438 16.4453 6.48438 13.0859C6.48438 9.72656 9.21875 6.99219 12.5781 6.99219C15.9375 6.99219 18.6719 9.72656 18.6719 13.0859C18.5937 16.5234 15.9375 19.1797 12.5781 19.1797ZM12.5781 8.78906C10.1563 8.78906 8.20312 10.7422 8.20312 13.1641C8.20312 15.5859 10.1563 17.5391 12.5781 17.5391C15 17.5391 16.9531 15.5859 16.9531 13.1641C16.9531 10.7422 15 8.78906 12.5781 8.78906ZM19.6094 8.16406C18.5156 8.16406 17.6563 7.30469 17.6563 6.21094C17.6563 5.11719 18.5156 4.25781 19.6094 4.25781C20.7031 4.25781 21.5625 5.11719 21.5625 6.21094C21.5625 7.30469 20.7031 8.16406 19.6094 8.16406ZM19.6094 5.58594C19.2188 5.58594 18.9844 5.89844 18.9844 6.21094C18.9844 6.52344 19.2969 6.83594 19.6094 6.83594C19.9219 6.83594 20.3125 6.60156 20.3125 6.21094C20.3125 5.82031 20 5.58594 19.6094 5.58594Z" fill="var(--fill-0, #EFF1F4)"/>
</g>
</svg>
