<svg width="59" height="219" viewBox="0 0 59 219" fill="none" xmlns="http://www.w3.org/2000/svg">
<path d="M34.9147 92.7389C33.4304 98.3536 31.8056 103.705 30.297 109.333C28.4239 116.322 26.6919 123.467 24.7831 130.464C22.8853 137.42 20.9646 144.406 19.0392 151.367C17.1118 158.335 15.1765 165.291 13.2303 172.258C11.2881 179.211 9.33472 186.176 7.37987 193.131C6.05208 197.856 4.72101 202.584 3.39074 207.307C2.80682 209.381 2.22442 211.448 1.64057 213.52C1.20495 215.066 0.769328 216.612 0.333694 218.157C0.273105 218.372 0.206302 218.576 0.14736 218.723C0.088387 218.871 0.0421117 218.951 0.0181375 218.944C-0.0058309 218.937 -0.00593551 218.844 0.0169227 218.687C0.0398112 218.529 0.0840319 218.319 0.139099 218.103C0.538928 216.533 0.938737 214.964 1.33855 213.394C1.78268 211.651 2.22594 209.911 2.67007 208.168C2.84197 207.921 3.01735 207.565 3.23884 206.871C3.35188 206.516 3.49913 205.995 3.58409 205.605C3.66035 205.254 3.70088 204.985 3.73922 204.73C3.77935 204.464 3.81741 204.21 3.89236 203.891C4.01952 203.35 4.11437 202.829 4.21392 202.281C4.25016 202.082 4.28705 201.879 4.32637 201.67C4.75062 200.007 5.17506 198.343 5.5996 196.68C5.78172 196.042 5.94799 195.456 6.07779 194.955C6.19422 194.506 6.28336 194.09 6.36691 193.675C6.43266 193.417 6.49843 193.16 6.56418 192.902C6.98865 191.24 7.41361 189.578 7.83874 187.916C8.21154 186.63 8.60028 185.281 9.08367 183.522C9.29201 182.764 9.50702 182.018 9.71369 181.302C10.0189 180.243 10.3061 179.247 10.5271 178.366C10.6747 177.777 10.854 177.163 11.0328 176.552C11.2727 175.731 11.512 174.912 11.6742 174.155C11.7761 173.679 11.8627 173.24 11.9428 172.834C12.0703 172.186 12.1816 171.621 12.3138 171.118C12.5621 170.172 12.7501 169.345 12.9158 168.617C13.1151 167.741 13.2822 167.006 13.4833 166.375C13.5137 166.279 13.5495 166.17 13.5898 166.047C13.8021 165.399 14.1417 164.363 14.5144 162.845C14.6471 162.305 14.753 161.792 14.8566 161.29C15.0075 160.559 15.154 159.849 15.3727 159.105C15.4054 158.994 15.4481 158.88 15.487 158.777C15.5364 158.645 15.5796 158.53 15.5883 158.457C15.6138 158.244 15.6686 157.91 15.7279 157.547C15.7715 157.28 15.8178 156.997 15.8569 156.735C16.3602 154.792 16.8643 152.848 17.3694 150.903C17.6008 150.012 17.8325 149.121 18.0643 148.23C18.2305 147.787 18.3951 147.333 18.5569 146.849C18.7685 146.218 19.0037 145.388 19.3069 144.319C19.53 143.533 19.7902 142.616 20.1048 141.552C20.6871 139.583 21.2214 137.544 21.5437 136.231C21.6118 135.953 21.68 135.674 21.7528 135.376C22.0289 134.243 22.3733 132.83 23.0529 130.153C23.6958 127.62 24.2623 125.471 24.6878 123.857C24.905 123.033 25.0856 122.349 25.2208 121.823C25.4523 120.924 25.7394 119.82 26.0277 118.713C26.4789 116.979 26.933 115.235 27.1806 114.245C27.2687 113.893 27.3601 113.523 27.4588 113.123C27.7325 112.015 28.0631 110.677 28.5396 108.839C29.0397 106.909 29.3703 105.719 29.7259 104.485C29.8704 103.984 30.0271 103.549 30.1887 103.102C30.4179 102.466 30.6571 101.804 30.8857 100.882C30.939 100.667 30.9913 100.436 31.0459 100.195C31.1463 99.7511 31.2548 99.2714 31.3932 98.7874C31.4415 98.6187 31.4917 98.4721 31.5409 98.3284C31.5951 98.1703 31.6482 98.0154 31.6967 97.8366C31.8779 97.1692 32.0496 96.5183 32.2021 95.94C32.3988 95.1943 32.5637 94.5689 32.6765 94.1837C32.8775 93.497 33.0657 92.7377 33.2563 91.9687C33.4018 91.3813 33.5487 90.7879 33.704 90.2169C34.1476 88.5852 34.7223 86.3318 35.2972 84.0052C35.5147 83.125 35.7369 82.3893 36.0216 81.4467C36.1987 80.8604 36.4001 80.194 36.6396 79.3627C36.7753 78.8915 36.862 78.4848 36.9423 78.1083C37.0162 77.7614 37.0848 77.4398 37.1813 77.1169C37.2664 76.8318 37.3501 76.6595 37.4295 76.496C37.518 76.3139 37.6011 76.1426 37.6753 75.8385C37.7148 75.6767 37.7497 75.4766 37.7912 75.2385C37.8076 75.1443 37.8252 75.0438 37.8444 74.9376C37.8501 74.9449 37.8561 74.9478 37.8609 74.9492C37.8947 74.9586 37.9952 74.6551 38.0938 74.3573C38.1332 74.2383 38.1723 74.1198 38.2067 74.0232C38.3331 73.6673 38.5224 72.9799 38.662 72.4533C38.7211 72.2305 38.7857 72.0316 38.861 71.7995C38.9279 71.5934 39.0034 71.3611 39.091 71.0626C39.141 70.8924 39.1861 70.7634 39.2235 70.6568C39.2505 70.5796 39.2736 70.5139 39.2916 70.4521C39.3071 70.3986 39.3091 70.3525 39.3112 70.3007C39.3127 70.2635 39.3144 70.223 39.3214 70.1746C39.3381 70.0588 39.3727 69.9136 39.4041 69.8136C39.4186 69.7674 39.4323 69.7315 39.4459 69.6959C39.4617 69.6544 39.4775 69.6131 39.4947 69.555C39.5738 69.2884 39.6326 69.0243 39.6938 68.7499C39.761 68.4483 39.8312 68.1337 39.9338 67.7901C39.9661 67.682 40.0043 67.5678 40.0413 67.4573C40.08 67.3416 40.1176 67.2292 40.1455 67.1325C40.2587 66.74 40.3338 66.3626 40.4029 66.0154C40.4489 65.7845 40.4923 65.5666 40.5423 65.3671C40.6341 65.0012 40.6574 64.7978 40.6745 64.6478C40.6834 64.5701 40.6906 64.5067 40.7049 64.442C40.7214 64.3837 40.7383 64.3245 40.755 64.2666C40.7714 64.2138 40.7884 64.1592 40.8016 64.1072C40.8026 64.1033 40.8035 64.0993 40.8045 64.0954C40.8988 63.7716 40.9946 63.4542 41.0898 63.1389C41.3036 62.4306 41.5149 61.7311 41.7022 60.9818C41.7426 60.8204 41.7744 60.6533 41.8069 60.4835C41.8466 60.2754 41.8872 60.0625 41.9453 59.8501C42.0837 59.3439 42.2407 58.8375 42.3953 58.3388C42.6278 57.5887 42.855 56.8556 43.006 56.1661C43.0558 55.9385 43.0972 55.7146 43.1387 55.49C43.1618 55.3648 43.185 55.239 43.2097 55.1124C43.2186 55.143 43.2298 55.1611 43.2402 55.1779C43.2617 55.2126 43.2801 55.2424 43.2691 55.3674C43.2429 55.6627 43.2252 56.0005 43.2843 55.9784C43.3004 55.9723 43.3133 55.9842 43.3261 55.9967C43.3582 56.0282 43.3911 56.0603 43.4788 55.8031C43.5379 55.6297 43.6865 55.1834 43.7348 54.887C43.7454 54.8225 43.7431 54.7809 43.7406 54.7346C43.7361 54.6514 43.731 54.5524 43.7973 54.2772C43.8085 54.2308 43.8209 54.1805 43.8338 54.1285C43.8852 53.9211 43.9428 53.689 43.9458 53.5972C43.9493 53.4916 43.9172 53.5057 43.8796 53.5222C43.8308 53.5437 43.7727 53.5692 43.7725 53.3395C43.7725 53.294 43.7903 53.212 43.8038 53.1501C43.8132 53.1064 43.8204 53.0731 43.8178 53.0688C43.8149 53.0641 43.803 53.0756 43.788 53.0904C43.7349 53.1424 43.6423 53.2325 43.7596 52.7838C43.7914 52.6624 43.8316 52.5245 43.8676 52.4009C43.9208 52.2188 43.9649 52.0675 43.9599 52.0443C43.958 52.0357 43.9551 52.029 43.9519 52.0234C43.9922 51.8778 44.0326 51.7323 44.0729 51.5867C44.1355 51.403 44.2048 51.1401 44.2913 50.8118C44.3122 50.7322 44.3344 50.6482 44.3576 50.5611C44.4373 50.2739 44.517 49.9867 44.5967 49.6996C44.6632 49.4728 44.7369 49.2322 44.8192 48.9795C44.9842 48.4731 45.1491 48.0383 45.3103 47.6134C45.3782 47.4344 45.4455 47.257 45.5119 47.0767C45.4946 47.1492 45.4797 47.2149 45.4696 47.2659C45.4009 47.6145 45.4094 47.7641 45.4173 47.9017C45.4226 47.9932 45.4275 48.0796 45.4092 48.2155C45.3757 48.4644 45.4183 48.45 45.4498 48.4395C45.4662 48.434 45.4794 48.4301 45.4776 48.4639C45.4761 48.4912 45.4627 48.5515 45.4488 48.6138C45.4367 48.668 45.4243 48.7241 45.4192 48.7607C45.3569 49.2051 45.4223 49.084 45.5175 48.9079C45.57 48.8107 45.6314 48.6973 45.6856 48.6522C45.7401 48.6155 45.7479 48.6349 45.7041 48.8648C45.7717 48.6946 45.8394 48.5245 45.907 48.3543C45.9241 48.285 45.9253 48.2293 45.9236 48.1502C45.9206 48.0088 46.0211 47.578 46.0996 47.2413C46.136 47.0854 46.1676 46.9498 46.1821 46.8722C46.2592 46.4601 46.1844 46.566 46.1186 46.6592C46.0824 46.7105 46.0489 46.7577 46.0449 46.7128C46.0432 46.6937 46.0302 46.7169 46.017 46.7403C46.0068 46.7583 45.9964 46.7769 45.991 46.7763C45.9516 46.7714 45.9875 46.525 46.0207 46.2963C46.0397 46.1654 46.0578 46.0405 46.0606 45.9696C46.0614 45.9479 46.061 45.9305 46.0605 45.914C46.0598 45.8901 46.0593 45.8667 46.0629 45.8314C46.0711 45.751 46.1053 45.5899 46.1429 45.4133C46.1621 45.3228 46.1822 45.2283 46.2001 45.1386C46.2232 45.0224 46.2192 44.9773 46.2152 44.9296C46.2123 44.896 46.2095 44.8608 46.216 44.7991C46.2276 44.6876 46.2794 44.4698 46.3275 44.2677C46.3484 44.1798 46.3685 44.0946 46.3845 44.0225C46.3909 43.9932 46.3921 43.9786 46.3894 43.9746C46.4657 43.6422 46.5378 43.3245 46.6079 43.0154C46.9594 41.4653 47.2635 40.1236 47.8323 38.1506C47.9398 37.7776 48.0463 37.3746 48.1497 36.9663C48.5133 35.6688 48.8775 34.3708 49.2419 33.0741C49.3451 32.8257 49.4582 32.5184 49.5807 32.1515C49.8106 31.4625 50.0127 30.7445 50.2512 29.8972C50.4275 29.2708 50.6237 28.5737 50.8659 27.765C51.2728 26.4062 51.6834 25.0091 52.1261 23.4272C52.5669 21.8521 53.0644 20.047 53.4118 18.7686C53.6012 18.0718 53.8282 17.3473 54.0396 16.6721C54.337 15.7223 54.6038 14.87 54.6928 14.3299C54.7212 14.1574 54.7358 13.9872 54.7501 13.8216C54.7603 13.7036 54.7706 13.5874 54.7852 13.4747C54.8673 13.1863 54.9495 12.8975 55.0317 12.6089C55.2044 12.1032 55.456 11.3129 55.6246 10.529C55.7095 10.2313 55.7944 9.93336 55.8766 9.64582C56.0556 9.01826 56.231 8.40434 56.4081 7.78485C56.4659 7.58265 56.5243 7.37844 56.5828 7.17372C56.5833 7.17178 56.5839 7.16984 56.5845 7.16791C56.7023 6.75584 56.821 6.34065 56.9379 5.93238C56.9879 5.75751 57.038 5.58264 57.088 5.40777C57.2152 4.96337 57.3433 4.51575 57.4694 4.0759C57.5361 3.8431 57.6034 3.60804 57.6709 3.3726C57.7804 2.99064 57.8907 2.60578 58.0006 2.22291C58.1782 1.60374 58.3551 0.987508 58.5325 0.370118C58.5615 0.269155 58.5934 0.173205 58.6213 0.103897C58.6493 0.0346198 58.6711 -0.00283678 58.6824 0.000306793C58.6937 0.00348219 58.6938 0.0471748 58.6832 0.121385C58.6727 0.195538 58.6522 0.294445 58.6269 0.39631C58.4713 1.02002 58.3159 1.64287 58.1597 2.26825C58.0632 2.65475 57.9662 3.04304 57.8699 3.42859C57.8105 3.66632 57.7512 3.90329 57.6924 4.13836C57.5815 4.58231 57.4682 5.03471 57.3559 5.48314C57.3118 5.65959 57.2676 5.83604 57.2234 6.01249C57.12 6.42555 57.0147 6.84555 56.9102 7.26236C56.9096 7.26487 56.909 7.26739 56.9083 7.26991C56.8569 7.47497 56.8056 7.6797 56.7549 7.88225C56.598 8.50743 56.4426 9.12707 56.2835 9.76021C56.2014 10.0874 56.1156 10.4283 56.0306 10.7666C55.9832 10.955 55.9359 11.1431 55.8896 11.3277C55.8642 11.4287 55.8384 11.531 55.8125 11.6338C55.2187 13.9945 54.628 16.3383 54.0301 18.7033C53.4345 21.0596 52.8365 23.4196 52.239 25.7723C51.64 28.1307 51.0409 30.4846 50.44 32.8401C46.6265 47.7891 42.7648 62.789 38.8464 77.7806C38.2876 79.919 37.7125 82.1127 37.15 84.2546C36.5813 86.42 36.0232 88.5405 35.4504 90.7108C35.2765 91.37 35.098 92.0456 34.9147 92.7389Z" fill="#D4D5D8"/>
</svg>
