<svg width="285" height="2" viewBox="0 0 285 2" fill="none" xmlns="http://www.w3.org/2000/svg">
<path d="M164.633 1.99855C157.331 2.01811 150.304 1.83355 142.977 1.83319C133.879 1.83274 124.637 2.00909 115.519 1.97625C106.453 1.9434 97.3437 1.89623 88.2631 1.83807C79.1724 1.77991 70.0951 1.71078 60.9998 1.63421C51.9238 1.55764 42.8282 1.47365 33.7451 1.38551C27.5756 1.32564 21.3992 1.26383 15.2304 1.20127C12.5223 1.17384 9.82227 1.1463 7.11563 1.11865C5.09631 1.09797 3.07709 1.0773 1.05783 1.05663C0.777069 1.05371 0.508118 1.04189 0.309845 1.02312C0.111542 1.00431 -0.000244141 0.980244 0 0.955366C0.000366211 0.930475 0.113098 0.90635 0.312012 0.887616C0.510925 0.868934 0.780334 0.857274 1.0611 0.854472C3.09741 0.834448 5.1337 0.814423 7.16998 0.794399C9.43173 0.772188 11.6896 0.749934 13.9507 0.727867C14.3067 0.829961 14.7954 0.907399 15.7109 0.941597C16.1781 0.959041 16.8596 0.966295 17.3612 0.947324C17.8118 0.930278 18.1512 0.899886 18.4734 0.870922C18.8105 0.840628 19.1304 0.811866 19.5421 0.80171C20.2408 0.78446 20.905 0.741115 21.6024 0.695576C21.8562 0.679002 22.1146 0.662112 22.3808 0.646104C24.5392 0.625343 26.6978 0.604745 28.856 0.584324C29.6898 0.595197 30.4562 0.603987 31.1065 0.5998C31.6898 0.596042 32.224 0.574475 32.7558 0.547647C33.0899 0.544519 33.424 0.541392 33.7582 0.538264C35.9146 0.51817 38.0718 0.498397 40.2291 0.4788C41.9124 0.506038 43.6766 0.532497 45.9705 0.544113C46.9591 0.54912 47.9345 0.563851 48.8722 0.577988C50.2572 0.598869 51.5601 0.618495 52.7024 0.603821C53.4659 0.594011 54.2691 0.60844 55.0703 0.62283C56.1447 0.642129 57.2172 0.661393 58.1894 0.622099C58.8007 0.597388 59.3621 0.567346 59.8821 0.539483C60.7095 0.49515 61.4323 0.456371 62.087 0.453698C63.3166 0.448686 64.3817 0.416389 65.3202 0.387898C66.4491 0.353631 67.3959 0.324879 68.2274 0.35585C68.3534 0.360546 68.4977 0.366789 68.66 0.373885C69.516 0.411287 70.8849 0.471108 72.8501 0.438223C73.5497 0.42651 74.2069 0.396074 74.8505 0.366208C75.7874 0.32273 76.6973 0.280529 77.6717 0.299311C77.8173 0.302122 77.9693 0.313898 78.1077 0.324656C78.2837 0.338334 78.4374 0.350273 78.5284 0.339888C78.7954 0.309426 79.2194 0.275758 79.6797 0.239115C80.018 0.212196 80.3766 0.183656 80.7072 0.153697C83.2317 0.136767 85.7569 0.12055 88.2826 0.105199C89.4398 0.0981583 90.5973 0.091293 91.7551 0.0846061C92.3473 0.13047 92.9529 0.171788 93.5925 0.203047C94.4286 0.243899 95.5124 0.256413 96.9095 0.272625C97.9374 0.284554 99.1356 0.298505 100.53 0.327093C103.111 0.380006 105.762 0.368141 107.461 0.339766C107.82 0.333765 108.181 0.327358 108.567 0.320391C110.033 0.293964 111.861 0.26087 115.334 0.224371C118.619 0.189847 121.413 0.180895 123.512 0.174168C124.583 0.170734 125.474 0.16797 126.156 0.162592C127.323 0.153388 128.757 0.145191 130.196 0.137003C132.448 0.124188 134.714 0.111349 135.997 0.0942324C136.454 0.088139 136.933 0.0805991 137.451 0.0725426C138.885 0.0502181 140.617 0.0232814 143.005 0.00771695C145.511 -0.00862073 147.065 0.00251928 148.679 0.026726C149.335 0.0365658 149.914 0.075477 150.51 0.115679C151.356 0.172726 152.238 0.232266 153.432 0.214501C153.711 0.210352 154.008 0.20108 154.319 0.191349C154.891 0.173475 155.509 0.154095 156.141 0.162592C156.362 0.165556 156.556 0.17612 156.747 0.186475C156.957 0.197867 157.162 0.209005 157.395 0.209627C158.265 0.211941 159.111 0.209309 159.863 0.206946C160.833 0.203899 161.646 0.201366 162.15 0.210602C163.05 0.227076 164.033 0.21233 165.029 0.19732C165.79 0.185855 166.558 0.174196 167.302 0.176361C169.429 0.182563 172.352 0.154462 175.365 0.107636C176.505 0.0899325 177.471 0.114115 178.708 0.145167C179.478 0.16448 180.353 0.186535 181.44 0.202681C182.057 0.211831 182.579 0.190291 183.062 0.17039C183.508 0.152056 183.921 0.135107 184.344 0.14468C184.718 0.153143 184.955 0.189362 185.179 0.223762C185.429 0.262044 185.664 0.29805 186.058 0.291025C186.267 0.287285 186.521 0.269169 186.824 0.247645C186.944 0.239133 187.072 0.230124 187.207 0.221203C187.2 0.22855 187.198 0.235119 187.198 0.24009C187.198 0.275229 187.599 0.293733 187.993 0.311862C188.15 0.3191 188.307 0.326248 188.435 0.334404C188.909 0.364424 189.805 0.369309 190.49 0.367914C190.78 0.367333 191.042 0.378228 191.349 0.390944C191.621 0.402233 191.928 0.414976 192.319 0.422382C192.542 0.426603 192.713 0.436788 192.855 0.44529C192.957 0.451445 193.044 0.456704 193.125 0.458085C193.195 0.459274 193.252 0.449201 193.316 0.437857C193.361 0.429692 193.411 0.420846 193.472 0.415071C193.618 0.401274 193.806 0.397113 193.937 0.401545C193.998 0.403595 194.046 0.407515 194.094 0.411415C194.15 0.41596 194.205 0.420537 194.281 0.422138C194.63 0.429476 194.97 0.417986 195.324 0.406054C195.712 0.392939 196.117 0.379314 196.567 0.389482C196.709 0.392684 196.86 0.400026 197.007 0.407151C197.16 0.414607 197.308 0.421803 197.435 0.423722C197.949 0.431502 198.431 0.406379 198.875 0.383267C199.171 0.367898 199.45 0.35344 199.708 0.350123C200.182 0.344066 200.437 0.313903 200.625 0.291634C200.722 0.280095 200.801 0.270618 200.885 0.267751C200.961 0.268591 201.038 0.269589 201.114 0.270675C201.183 0.272894 201.255 0.275183 201.323 0.274453C201.328 0.274397 201.333 0.274267 201.338 0.274209C201.762 0.281521 202.179 0.291891 202.592 0.302235C203.522 0.325468 204.441 0.348464 205.412 0.335501C205.621 0.332706 205.834 0.320251 206.051 0.307597C206.316 0.292093 206.588 0.276236 206.865 0.277377C207.525 0.280097 208.191 0.300639 208.847 0.320879C209.834 0.351321 210.798 0.381049 211.685 0.348417C211.977 0.337647 212.263 0.319708 212.549 0.301626C212.708 0.291549 212.869 0.281386 213.031 0.272503C212.996 0.288999 212.978 0.304486 212.961 0.318929C212.926 0.348697 212.896 0.374175 212.74 0.395818C212.373 0.446965 211.957 0.517376 212.003 0.568727C212.016 0.582664 212.006 0.598185 211.994 0.613813C211.967 0.653022 211.938 0.693064 212.279 0.711173C212.509 0.723377 213.1 0.751395 213.475 0.721409C213.557 0.714876 213.607 0.701924 213.662 0.687534C213.762 0.661675 213.88 0.631054 214.236 0.623927C214.296 0.622728 214.361 0.621645 214.429 0.620637C214.697 0.616616 214.998 0.612178 215.11 0.591392C215.24 0.567447 215.212 0.540022 215.18 0.508045C215.138 0.466399 215.088 0.416932 215.367 0.357313C215.422 0.345526 215.528 0.341489 215.607 0.338426C215.663 0.336268 215.706 0.334538 215.71 0.330992C215.715 0.326919 215.697 0.318443 215.675 0.307719C215.594 0.269884 215.454 0.203779 216.038 0.200976C216.195 0.200224 216.376 0.203371 216.538 0.206215C216.776 0.210406 216.974 0.213863 217.001 0.203047C217.011 0.198943 217.018 0.194496 217.024 0.189887C217.214 0.191187 217.404 0.192486 217.593 0.193786C217.837 0.206681 218.179 0.205577 218.606 0.204144C218.709 0.203796 218.818 0.203476 218.932 0.203291C219.306 0.205959 219.681 0.208613 220.056 0.211333C220.353 0.216802 220.669 0.225709 221.003 0.239847C221.672 0.268179 222.253 0.314909 222.822 0.360603C223.061 0.379856 223.299 0.398968 223.539 0.416411C223.446 0.418556 223.361 0.421087 223.296 0.424575C222.85 0.448443 222.671 0.495403 222.506 0.53863C222.397 0.567382 222.294 0.594492 222.123 0.611985C221.81 0.644032 221.841 0.681511 221.864 0.709224C221.876 0.723598 221.885 0.735375 221.843 0.742368C221.81 0.74797 221.732 0.750604 221.652 0.753334C221.582 0.755713 221.51 0.758201 221.464 0.762717C220.904 0.817583 221.072 0.849429 221.317 0.89578C221.452 0.921343 221.61 0.951342 221.682 0.992044C221.745 1.03514 221.724 1.04775 221.43 1.06491C221.659 1.0862 221.887 1.10748 222.116 1.12876C222.206 1.12738 222.274 1.11407 222.369 1.09196C222.54 1.05248 223.096 1.03805 223.531 1.02677C223.732 1.02155 223.907 1.01698 224.006 1.01093C224.531 0.978734 224.378 0.933895 224.244 0.89444C224.17 0.872724 224.101 0.852623 224.155 0.837169C224.177 0.830558 224.145 0.823998 224.112 0.817307C224.087 0.812135 224.061 0.806876 224.06 0.801466C224.053 0.762177 224.364 0.733013 224.653 0.705934C224.818 0.690426 224.975 0.675547 225.062 0.659873C225.089 0.655097 225.11 0.650225 225.13 0.645495C225.159 0.638588 225.187 0.632005 225.231 0.626364C225.331 0.613517 225.538 0.604854 225.765 0.595413C225.881 0.590573 226.002 0.585519 226.117 0.579572C226.266 0.571864 226.319 0.556325 226.376 0.540092C226.416 0.52862 226.458 0.516804 226.534 0.50707C226.674 0.489467 226.955 0.483113 227.216 0.477216C227.33 0.474648 227.44 0.472097 227.533 0.468808C227.57 0.467469 227.588 0.464797 227.592 0.461131C228.021 0.448833 228.43 0.43627 228.828 0.423966C230.825 0.36228 232.554 0.308797 235.135 0.347564C235.623 0.354895 236.147 0.35343 236.677 0.347564C238.371 0.362976 240.066 0.378889 241.759 0.395209C242.095 0.430612 242.505 0.460344 242.99 0.483674C243.902 0.527479 244.84 0.536839 245.946 0.54789C246.764 0.556061 247.675 0.565186 248.736 0.589808C250.519 0.631181 252.349 0.666178 254.414 0.684366C256.471 0.702473 258.825 0.715821 260.491 0.720556C261.398 0.723141 262.352 0.754811 263.241 0.784285C264.491 0.825744 265.613 0.862903 266.298 0.809021C266.517 0.791802 266.728 0.761907 266.934 0.732863C267.081 0.712179 267.225 0.691978 267.367 0.676933C267.744 0.681605 268.121 0.686227 268.499 0.690946C269.169 0.726853 270.211 0.765351 271.218 0.725308C271.607 0.730256 271.996 0.73518 272.372 0.740174C273.193 0.75062 273.995 0.7612 274.805 0.771856C275.07 0.77538 275.337 0.778909 275.605 0.782457C275.607 0.782498 275.61 0.782538 275.612 0.782579C276.151 0.789721 276.694 0.796912 277.228 0.804147C277.456 0.807234 277.685 0.810321 277.914 0.813408C278.495 0.821242 279.08 0.829104 279.655 0.837047C279.96 0.841272 280.267 0.845464 280.575 0.84972C281.075 0.856625 281.578 0.863568 282.079 0.870557C282.889 0.881855 283.695 0.893282 284.502 0.904797C284.634 0.906702 284.761 0.912677 284.854 0.921735C284.948 0.930809 285 0.942182 285 0.953904C285 0.965631 284.947 0.977033 284.853 0.986073C284.76 0.995081 284.633 1.00091 284.501 1.00277C283.693 1.01397 282.886 1.02505 282.075 1.03603C281.575 1.04282 281.072 1.04967 280.572 1.05638C280.264 1.06052 279.957 1.06458 279.652 1.06869C279.077 1.07641 278.491 1.08412 277.909 1.09172C277.681 1.09473 277.452 1.09773 277.223 1.10074C276.688 1.10778 276.144 1.11475 275.603 1.1217C275.6 1.12174 275.597 1.12178 275.594 1.12182C275.328 1.12523 275.063 1.12866 274.8 1.13205C273.99 1.14239 273.187 1.15264 272.366 1.16276C271.942 1.16822 271.5 1.17357 271.061 1.17897C270.817 1.18197 270.573 1.18499 270.334 1.18798C270.203 1.18957 270.07 1.19115 269.937 1.19274C266.877 1.2302 263.838 1.26624 260.771 1.30082C257.716 1.33539 254.655 1.36854 251.603 1.40037C248.544 1.4322 245.49 1.46266 242.433 1.49188C223.037 1.67745 203.563 1.82961 184.08 1.92483C181.301 1.9385 178.45 1.95082 175.665 1.96187C172.85 1.97292 170.093 1.98273 167.271 1.99112C166.414 1.99374 165.535 1.99619 164.633 1.99855Z" fill="#D4D5D8"/>
</svg>
