<svg preserveAspectRatio="none" width="100%" height="100%" overflow="visible" style="display: block;" viewBox="0 0 16.0002 20.01" fill="none" xmlns="http://www.w3.org/2000/svg">
<path id="Vector" d="M7.42009 19.82C7.59009 19.94 7.80009 20.01 8.00009 20.01C8.20009 20.01 8.41009 19.95 8.58009 19.82C8.88009 19.6 16.0301 14.45 16.0001 8C16.0001 3.59 12.4101 0 8.00009 0C3.59009 0 9.41395e-05 3.59 9.41395e-05 8C-0.0299059 14.44 7.12009 19.6 7.42009 19.82ZM8.00009 2.01C11.3101 2.01 14.0001 4.7 14.0001 8.01C14.0201 12.45 9.61009 16.44 8.00009 17.75C6.39009 16.44 1.98009 12.46 2.00009 8.01C2.00009 4.7 4.69009 2.01 8.00009 2.01Z" fill="var(--fill-0, #EFF1F4)"/>
</svg>
