<svg width="47" height="38" viewBox="0 0 47 38" fill="none" xmlns="http://www.w3.org/2000/svg">
<g clip-path="url(#clip0_290_127)">
<path d="M18.5018 0H40.7287C41.1495 0.100435 41.708 0.185646 42.0909 0.320274C44.4756 1.15821 46.4692 3.15909 46.8354 5.73687C46.8553 5.87507 46.8915 6.26675 46.9531 6.35104V7.50533L46.943 7.53917C46.8042 8.01514 46.7578 8.59356 46.6193 9.08591C46.4575 9.56522 46.3818 10.1665 46.2231 10.6356C45.963 11.4046 45.8873 12.2886 45.5438 13.0112C44.9432 14.2753 43.7854 14.0749 42.6743 14.0739L39.9566 14.0742L35.928 14.076C35.2885 14.0764 34.6469 14.0759 34.0095 14.0796C33.5755 14.0821 33.035 14.0877 32.6171 13.9416C32.1355 13.7733 31.5733 13.2665 31.3426 12.8055C30.5179 11.3527 32.1756 9.74126 31.1612 8.40681C30.9778 8.16553 30.5652 7.93366 30.2843 7.83592C29.5367 7.57578 28.8285 7.91716 28.2934 8.44124C27.6487 9.07255 27.0211 9.72965 26.3814 10.3702L21.82 14.9489L19.2332 17.5485C19.0431 17.7394 18.319 18.3913 18.2099 18.5466C17.657 19.3333 17.2952 21.1653 17.0665 22.0496L16.1401 25.5742C15.8716 26.6097 15.5516 27.6396 15.3325 28.6843C15.1286 29.6568 15.9921 30.332 16.8888 30.3403C18.2469 30.3528 19.6045 30.3326 20.9626 30.3346L23.1121 30.3409C24.8948 30.3456 26.0687 30.3309 26.6246 28.2182C26.9297 27.0583 26.3701 26.6895 25.2783 26.7762C24.2445 26.85 23.1164 26.5884 22.5398 25.6092C21.791 24.3374 22.7251 22.6863 22.9438 21.3278C23.0395 20.7335 23.4941 19.4434 24.1143 19.1722C25.1889 18.8618 27.1098 18.973 28.2376 18.9728L33.9887 18.9726L38.3063 18.9732C39.2768 18.9735 40.7681 18.8561 41.6635 19.1099C42.2793 19.2844 42.7176 19.6839 43.0214 20.2388C43.1591 20.4906 43.2749 20.7899 43.2858 21.0787C43.3115 21.7901 42.5335 24.5291 42.2851 25.3766C41.5917 27.8151 40.9272 30.2619 40.2923 32.7164L39.6621 35.0886C39.3958 36.1123 39.2823 37.1876 38.2507 37.7399C37.865 37.9463 37.42 38.0097 36.986 38.0369C35.5305 38.0717 34.0508 38.0563 32.5939 38.0564H24.2227H13.6248L9.77694 38.0571C8.24371 38.0586 6.31972 38.1429 4.87154 37.7021C3.11579 37.1523 1.64538 35.9307 0.777496 34.3007C0.241658 33.2861 0.263249 32.8289 0 31.822V30.498L0.0460164 30.4328C0.0472125 29.8915 0.64169 27.7047 0.800578 27.1247L1.79588 23.4491L3.50111 17.0471C3.87391 15.6355 4.2587 14.2253 4.66154 12.8223C5.134 11.1768 6.21567 10.2006 7.36918 9.04318L9.66969 6.72441L12.676 3.69133C14.8029 1.53447 15.4032 0.605177 18.5018 0ZM18.9153 35.6477C19.2761 35.678 19.6529 35.6746 20.016 35.6775C20.2797 34.7261 20.2786 34.1189 21.2093 33.5067C21.24 33.4865 21.2702 33.4925 21.3119 33.4909C21.441 33.6477 20.9322 35.3099 20.8767 35.6424C21.2484 35.6604 21.5897 35.6799 21.963 35.6654C22.0379 35.2763 22.1335 34.8914 22.2494 34.5125C22.3502 34.229 22.9492 33.5784 23.2193 33.4756L23.2741 33.5034C23.3023 33.8126 22.8802 35.2418 22.7761 35.6393C23.1706 35.668 23.491 35.6734 23.8837 35.6742C24.0498 34.9656 24.2701 34.2616 24.419 33.5581C24.5657 32.8652 23.6385 32.89 23.2083 32.9199C22.6388 32.9596 22.3983 32.7812 21.9489 33.1479C21.8385 33.1052 21.6585 32.9627 21.6182 32.9562C21.2502 32.8964 20.664 32.9329 20.297 32.9447C19.2878 33.4847 19.2055 34.6515 18.9153 35.6477ZM26.0249 35.6373C26.3894 35.6621 26.7544 35.6774 27.1197 35.6831C27.228 35.2533 27.3299 34.7917 27.4889 34.3805C27.575 34.158 28.1603 33.5206 28.37 33.4759C28.4045 33.4954 28.44 33.5052 28.4461 33.5347C28.5107 33.8459 27.9381 35.3953 28.04 35.5925C28.2785 35.725 28.7276 35.6557 29.0049 35.6805C29.1337 35.682 29.2749 35.6805 29.4024 35.6855C29.6817 35.6547 30.1008 35.6769 30.3928 35.6841C30.4365 35.4212 30.5646 34.7397 30.7909 34.6151C30.8731 34.5974 30.9444 34.5914 31.0176 34.6283C31.5953 34.9196 31.1869 35.3312 31.2995 35.5914C31.4276 35.7004 32.0982 35.6711 32.3054 35.6715C32.9665 33.1906 33.6723 32.681 30.5925 32.9607C29.5819 33.8933 29.747 33.954 29.3819 35.2756C29.2936 35.1053 29.3003 34.9511 29.2908 34.7606C29.4048 34.2976 29.7448 33.481 29.5387 33.1162C29.2012 32.7978 27.9986 32.9568 27.5137 32.9373C27.2084 32.9251 27.1725 33.2246 26.9646 33.0325C26.7654 32.8483 25.8517 32.9409 25.5923 32.9453C25.3021 32.9501 24.8113 33.5375 24.6669 33.7409C24.4971 33.98 24.162 35.3577 24.1941 35.6325C24.3312 35.7078 25.0084 35.6698 25.2057 35.6644C25.4204 34.7701 25.4775 34.1723 26.3249 33.5582C26.3495 33.5404 26.4079 33.5289 26.4387 33.5257C26.6622 33.7172 26.1118 35.3294 26.0249 35.6373ZM16.7543 35.6718C16.901 35.1542 17.0165 34.1126 17.7271 34.8775C17.7494 35.1272 17.6673 35.3915 17.6052 35.6378C18.0145 35.6697 18.2873 35.6743 18.695 35.6695C18.7703 35.3286 18.9308 34.5669 19.057 34.2708C19.7807 32.573 18.4012 32.9135 17.0619 32.9421C16.8234 33.0441 16.292 33.5256 16.2101 33.7519C16.0985 34.0608 15.6844 35.3664 15.7282 35.6178C15.9133 35.7052 16.515 35.675 16.7543 35.6718ZM9.33611 34.0524C9.43992 33.5206 9.42144 33.4791 9.08785 33.0566C8.60151 32.8508 7.37383 32.9144 6.82185 32.95C6.64075 33.0323 6.60218 33.0868 6.53159 33.3018C6.28458 34.0541 6.09724 34.8616 5.90389 35.6304C6.3756 35.683 8.39057 35.7 8.90893 35.6618C9.1405 34.6931 9.00354 34.773 8.086 34.8316L7.84344 35.0978C7.61339 35.1143 7.417 35.1281 7.1857 35.127C7.15602 34.9911 7.16351 34.9687 7.19311 34.8358C7.37695 34.6071 7.71693 34.6739 7.99627 34.654C8.03714 34.5126 8.11178 34.3282 8.06494 34.1975C7.88875 34.026 7.56702 34.1089 7.3312 34.1494C7.45673 33.8597 7.75756 32.9972 8.11361 33.633C8.31893 33.9997 8.27904 34.0971 8.7637 34.072C8.94223 34.0627 9.14908 34.0672 9.33611 34.0524ZM12.2213 35.4537C12.2654 35.2597 12.3426 35.0501 12.2793 34.879C11.9767 34.611 11.2967 34.9734 10.9961 35.114C10.9302 35.1448 10.5195 35.1387 10.4269 35.1388C10.5508 34.3961 10.7749 33.6814 10.9451 32.9514C10.5725 32.9336 10.2611 32.9331 9.88925 32.9386C9.77951 33.2594 9.10399 35.4072 9.38232 35.5268C9.86652 35.7349 11.5758 35.7097 12.1109 35.6593C12.1917 35.5998 12.1933 35.5522 12.2213 35.4537ZM35.6224 35.4032C35.6602 35.2411 35.6893 35.127 35.7031 34.9612C35.4007 34.5741 34.7426 34.9784 34.3952 35.1184C34.3271 35.1459 33.9174 35.1393 33.8229 35.139C33.9675 34.384 34.2059 33.6714 34.3476 32.9589C33.9723 32.93 33.6537 32.9322 33.2793 32.9347C33.1258 33.4536 32.6437 35.0143 32.7796 35.4578C33.0375 35.7577 35.0433 35.7069 35.4987 35.6585C35.5977 35.5676 35.5769 35.5524 35.6224 35.4032ZM15.4165 35.674C15.536 35.265 15.6956 34.7399 15.7484 34.3253C15.2897 34.2829 14.8021 34.2951 14.3397 34.2966C14.081 34.6822 14.1775 34.7474 14.5066 35.0395C14.4309 35.1188 14.043 35.1264 13.921 35.129C13.8396 35.1306 13.7581 35.1317 13.6766 35.1321C13.8536 34.3389 13.958 33.996 14.7252 33.501L14.813 33.509C14.9235 33.6906 14.6905 33.8459 15.0938 33.9429C15.2679 33.9847 15.6713 33.968 15.8655 33.9655C15.9973 33.6067 16.1253 33.0868 15.6555 32.9712C15.1849 32.8553 14.2902 32.9284 13.7994 32.9427C13.3132 33.2222 12.9148 33.7864 12.7707 34.314C12.6648 34.7016 12.2673 35.5582 12.9297 35.6308C13.7239 35.7178 14.6147 35.6772 15.4165 35.674Z" fill="black"/>
<path d="M31.608 33.4709C31.6582 33.4682 31.6824 33.4952 31.7244 33.526C31.8139 33.9497 31.5152 34.0253 31.1887 34.0413L31.1017 34.0117L31.0834 33.9587C31.2098 33.802 31.45 33.6078 31.608 33.4709Z" fill="black" fill-opacity="0.933333"/>
<path d="M17.9926 33.4702L18.0467 33.4889C18.1331 33.5871 18.1145 33.5427 18.1366 33.6586C18.0414 33.997 17.8513 34.0357 17.5406 34.0467L17.4677 34.0159L17.4476 33.9592C17.5552 33.8269 17.8462 33.5925 17.9926 33.4702Z" fill="black" fill-opacity="0.929412"/>
<path d="M29.0049 35.6806C29.103 35.5723 29.2432 34.944 29.2908 34.7607C29.3003 34.9512 29.2936 35.1054 29.3819 35.2757C29.35 35.3956 29.3003 35.5171 29.3481 35.6279L29.4024 35.6856C29.2749 35.6806 29.1337 35.6821 29.0049 35.6806Z" fill="black" fill-opacity="0.960784"/>
</g>
<defs>
<clipPath id="clip0_290_127">
<rect width="47" height="38" fill="white"/>
</clipPath>
</defs>
</svg>
