<svg preserveAspectRatio="none" width="100%" height="100%" overflow="visible" style="display: block;" viewBox="0 0 285 2" fill="none" xmlns="http://www.w3.org/2000/svg">
<path id="Line 1" d="M120.367 0.00145161C127.669 -0.0181079 134.696 0.166452 142.023 0.166806C151.121 0.167263 160.363 -0.00908995 169.481 0.0237507C178.547 0.0565995 187.656 0.103772 196.737 0.161932C205.828 0.220093 214.905 0.289222 224 0.365792C233.076 0.442361 242.172 0.526353 251.255 0.614493C257.424 0.674363 263.601 0.736167 269.77 0.798735C272.478 0.826158 275.178 0.853704 277.884 0.881351C279.904 0.902025 281.923 0.9227 283.942 0.943374C284.223 0.946288 284.492 0.958113 284.69 0.976884C284.888 0.995685 285 1.01976 285 1.04463C285 1.06953 284.887 1.09365 284.688 1.11238C284.489 1.13107 284.22 1.14273 283.939 1.14553C281.903 1.16555 279.866 1.18558 277.83 1.2056C275.568 1.22781 273.31 1.25007 271.049 1.27213C270.693 1.17004 270.205 1.0926 269.289 1.0584C268.822 1.04096 268.14 1.03371 267.639 1.05268C267.188 1.06972 266.849 1.10011 266.527 1.12908C266.189 1.15937 265.87 1.18813 265.458 1.19829C264.759 1.21554 264.095 1.25888 263.398 1.30442C263.144 1.321 262.885 1.33789 262.619 1.3539C260.461 1.37466 258.302 1.39525 256.144 1.41568C255.31 1.4048 254.544 1.39601 253.893 1.4002C253.31 1.40396 252.776 1.42553 252.244 1.45235C251.91 1.45548 251.576 1.45861 251.242 1.46174C249.085 1.48183 246.928 1.5016 244.771 1.5212C243.088 1.49396 241.323 1.4675 239.029 1.45589C238.041 1.45088 237.065 1.43615 236.128 1.42201C234.743 1.40113 233.44 1.38151 232.298 1.39618C231.534 1.40599 230.731 1.39156 229.93 1.37717C228.855 1.35787 227.783 1.33861 226.811 1.3779C226.199 1.40261 225.638 1.43265 225.118 1.46052C224.291 1.50485 223.568 1.54363 222.913 1.5463C221.683 1.55131 220.618 1.58361 219.68 1.6121C218.551 1.64637 217.604 1.67512 216.773 1.64415C216.647 1.63945 216.502 1.63321 216.34 1.62612C215.484 1.58871 214.115 1.52889 212.15 1.56178C211.45 1.57349 210.793 1.60393 210.15 1.63379C209.213 1.67727 208.303 1.71947 207.328 1.70069C207.183 1.69788 207.031 1.6861 206.892 1.67534C206.716 1.66167 206.563 1.64973 206.472 1.66011C206.205 1.69057 205.781 1.72424 205.32 1.76088C204.982 1.7878 204.623 1.81634 204.293 1.8463C201.768 1.86323 199.243 1.87945 196.717 1.8948C195.56 1.90184 194.403 1.90871 193.245 1.91539C192.653 1.86953 192.047 1.82821 191.408 1.79695C190.571 1.7561 189.488 1.74359 188.091 1.72738C187.063 1.71545 185.864 1.70149 184.47 1.67291C181.889 1.61999 179.238 1.63186 177.539 1.66023C177.18 1.66623 176.819 1.67264 176.433 1.67961C174.967 1.70604 173.139 1.73913 169.666 1.77563C166.381 1.81015 163.587 1.8191 161.488 1.82583C160.417 1.82927 159.526 1.83203 158.844 1.83741C157.677 1.84661 156.243 1.85481 154.804 1.863C152.552 1.87581 150.286 1.88865 149.003 1.90577C148.546 1.91186 148.067 1.9194 147.549 1.92746C146.115 1.94978 144.383 1.97672 141.995 1.99228C139.489 2.00862 137.935 1.99748 136.321 1.97327C135.665 1.96343 135.086 1.92452 134.49 1.88432C133.644 1.82727 132.762 1.76773 131.568 1.7855C131.289 1.78965 130.992 1.79892 130.681 1.80865C130.109 1.82653 129.491 1.8459 128.859 1.83741C128.638 1.83444 128.444 1.82388 128.253 1.81352C128.043 1.80213 127.838 1.791 127.605 1.79037C126.735 1.78806 125.889 1.79069 125.137 1.79305C124.167 1.7961 123.354 1.79863 122.85 1.7894C121.95 1.77292 120.967 1.78767 119.971 1.80268C119.21 1.81415 118.442 1.8258 117.698 1.82364C115.571 1.81744 112.648 1.84554 109.635 1.89236C108.495 1.91007 107.529 1.88588 106.292 1.85483C105.522 1.83552 104.647 1.81347 103.56 1.79732C102.943 1.78817 102.421 1.80971 101.938 1.82961C101.492 1.84794 101.079 1.86489 100.656 1.85532C100.282 1.84686 100.045 1.81064 99.8209 1.77624C99.5711 1.73796 99.3359 1.70195 98.9425 1.70898C98.7332 1.71271 98.4787 1.73083 98.176 1.75235C98.0563 1.76087 97.9285 1.76988 97.7933 1.7788C97.8003 1.77145 97.8019 1.76488 97.802 1.75991C97.8025 1.72477 97.4011 1.70627 97.0073 1.68814C96.8501 1.6809 96.6934 1.67375 96.5648 1.6656C96.0914 1.63558 95.195 1.63069 94.51 1.63209C94.2202 1.63267 93.9576 1.62177 93.6512 1.60906C93.3791 1.59777 93.0724 1.58502 92.6814 1.57762C92.4584 1.5734 92.2871 1.56321 92.1454 1.55471C92.0429 1.54856 91.9556 1.5433 91.8747 1.54192C91.8046 1.54073 91.748 1.5508 91.6844 1.56214C91.6387 1.57031 91.589 1.57915 91.5279 1.58493C91.3819 1.59873 91.1943 1.60289 91.0626 1.59845C91.0018 1.59641 90.9537 1.59249 90.906 1.58858C90.8504 1.58404 90.7952 1.57946 90.719 1.57786C90.3695 1.57052 90.0296 1.58201 89.6764 1.59395C89.2883 1.60706 88.8834 1.62069 88.4327 1.61052C88.2908 1.60732 88.1397 1.59997 87.9935 1.59285C87.8404 1.58539 87.6916 1.5782 87.5651 1.57628C87.0515 1.5685 86.5688 1.59362 86.1246 1.61673C85.8292 1.6321 85.5505 1.64656 85.2918 1.64988C84.8176 1.65593 84.563 1.6861 84.3753 1.70837C84.2781 1.7199 84.1987 1.72938 84.1155 1.73225C84.0392 1.73141 83.9618 1.73041 83.8861 1.72932C83.8166 1.72711 83.7447 1.72482 83.6773 1.72555C83.6722 1.7256 83.6672 1.72573 83.6621 1.72579C83.238 1.71848 82.8214 1.70811 82.4075 1.69776C81.4778 1.67453 80.5594 1.65154 79.5884 1.6645C79.3792 1.66729 79.166 1.67975 78.9492 1.6924C78.6835 1.70791 78.4117 1.72376 78.1349 1.72262C77.4751 1.7199 76.809 1.69936 76.1529 1.67912C75.1662 1.64868 74.2019 1.61895 73.3154 1.65158C73.0228 1.66235 72.7373 1.68029 72.4511 1.69837C72.2915 1.70845 72.1311 1.71861 71.9694 1.7275C72.0037 1.711 72.022 1.69551 72.039 1.68107C72.0741 1.6513 72.1044 1.62582 72.2597 1.60418C72.6269 1.55303 73.043 1.48262 72.9968 1.43127C72.9843 1.41734 72.9944 1.40182 73.0055 1.38619C73.0333 1.34698 73.0616 1.30694 72.7207 1.28883C72.4909 1.27662 71.9004 1.2486 71.5248 1.27859C71.443 1.28512 71.3932 1.29808 71.3378 1.31247C71.2382 1.33833 71.1197 1.36895 70.7638 1.37607C70.7039 1.37727 70.6387 1.37836 70.5713 1.37936C70.3028 1.38338 70.0021 1.38782 69.8897 1.40861C69.7602 1.43255 69.7878 1.45998 69.8201 1.49196C69.862 1.5336 69.912 1.58307 69.6331 1.64269C69.5778 1.65447 69.4724 1.65851 69.3928 1.66157C69.3368 1.66373 69.2939 1.66546 69.2895 1.66901C69.2848 1.67308 69.3026 1.68156 69.3254 1.69228C69.4059 1.73012 69.5455 1.79622 68.9623 1.79902C68.8045 1.79978 68.624 1.79663 68.4622 1.79378C68.2237 1.78959 68.0256 1.78614 67.999 1.79695C67.9892 1.80106 67.982 1.8055 67.9762 1.81011C67.7863 1.80881 67.5964 1.80751 67.4065 1.80621C67.163 1.79332 66.8211 1.79442 66.3944 1.79586C66.2908 1.7962 66.1816 1.79652 66.0682 1.79671C65.6936 1.79404 65.3187 1.79139 64.9441 1.78867C64.647 1.7832 64.3308 1.77429 63.9971 1.76015C63.3285 1.73182 62.7467 1.68509 62.1783 1.6394C61.9388 1.62014 61.7014 1.60103 61.4607 1.58359C61.5545 1.58144 61.6391 1.57891 61.7042 1.57542C62.15 1.55156 62.329 1.5046 62.4935 1.46137C62.603 1.43262 62.7063 1.40551 62.8773 1.38801C63.1905 1.35597 63.1591 1.31849 63.1361 1.29078C63.1241 1.2764 63.1151 1.26463 63.1567 1.25763C63.1903 1.25203 63.2679 1.2494 63.3481 1.24667C63.4179 1.24429 63.49 1.2418 63.5362 1.23728C64.0962 1.18242 63.9278 1.15057 63.6829 1.10422C63.5479 1.07866 63.3901 1.04866 63.3176 1.00796C63.2554 0.964861 63.2764 0.952254 63.5699 0.935088C63.3412 0.913804 63.1125 0.892521 62.8838 0.871237C62.7941 0.872621 62.7261 0.885927 62.6305 0.908037C62.4598 0.947521 61.9038 0.961951 61.4694 0.973228C61.2683 0.978449 61.0932 0.983015 60.9943 0.989069C60.4688 1.02127 60.6216 1.0661 60.7562 1.10556C60.8303 1.12728 60.8986 1.14738 60.8454 1.16283C60.8227 1.16944 60.8551 1.176 60.8878 1.18269C60.913 1.18786 60.9389 1.19312 60.94 1.19853C60.9468 1.23782 60.6359 1.26699 60.3474 1.29407C60.1822 1.30957 60.0247 1.32445 59.9376 1.34013C59.911 1.3449 59.8899 1.34977 59.8702 1.35451C59.8413 1.36141 59.8131 1.368 59.7691 1.37364C59.6687 1.38648 59.4619 1.39515 59.2353 1.40459C59.1191 1.40943 58.9977 1.41448 58.883 1.42043C58.7343 1.42814 58.6808 1.44367 58.6243 1.45991C58.5843 1.47138 58.5424 1.4832 58.4655 1.49293C58.3262 1.51053 58.0449 1.51689 57.7839 1.52278C57.6702 1.52535 57.5602 1.5279 57.4675 1.53119C57.4298 1.53253 57.4117 1.5352 57.4077 1.53887C56.9791 1.55117 56.5699 1.56373 56.1716 1.57603C54.1747 1.63772 52.4461 1.6912 49.8648 1.65244C49.3768 1.64511 48.8527 1.64657 48.3232 1.65244C46.6291 1.63702 44.9341 1.62111 43.2406 1.60479C42.9054 1.56939 42.4953 1.53966 42.0099 1.51633C41.0982 1.47252 40.1604 1.46316 39.0538 1.45211C38.2357 1.44394 37.3252 1.43481 36.2641 1.41019C34.4815 1.36882 32.6511 1.33382 30.5858 1.31563C28.5294 1.29753 26.1751 1.28418 24.5095 1.27944C23.6015 1.27686 22.6478 1.24519 21.7589 1.21571C20.5086 1.17426 19.3867 1.1371 18.7017 1.19098C18.483 1.2082 18.2715 1.23809 18.0657 1.26714C17.9192 1.28782 17.7746 1.30802 17.633 1.32307C17.256 1.31839 16.8786 1.31377 16.5013 1.30905C15.8309 1.27315 14.7892 1.23465 13.7822 1.27469C13.3931 1.26974 13.0036 1.26482 12.6276 1.25983C11.8072 1.24938 11.0045 1.2388 10.1945 1.22814C9.93014 1.22462 9.66313 1.22109 9.39545 1.21754C9.39291 1.2175 9.39038 1.21746 9.38784 1.21742C8.84904 1.21028 8.30617 1.20309 7.77228 1.19585C7.54361 1.19277 7.31494 1.18968 7.08627 1.18659C6.50515 1.17876 5.91984 1.1709 5.3446 1.16295C5.04014 1.15873 4.73275 1.15454 4.42484 1.15028C3.92531 1.14337 3.422 1.13643 2.92127 1.12944C2.11147 1.11815 1.30547 1.10672 0.497931 1.0952C0.365865 1.0933 0.238953 1.08732 0.145683 1.07827C0.0524467 1.06919 -0.00014252 1.05782 2.90102e-07 1.0461C0.000182897 1.03437 0.0532165 1.02297 0.14677 1.01393C0.240262 1.00492 0.367044 0.999087 0.499018 0.997233C1.30713 0.98603 2.11416 0.974951 2.92453 0.963967C3.42535 0.957176 3.92848 0.950326 4.4281 0.943618C4.73616 0.939482 5.04326 0.935416 5.34786 0.931311C5.92316 0.923594 6.50945 0.915885 7.09062 0.90828C7.31929 0.905275 7.54796 0.902269 7.77663 0.899263C8.31195 0.892221 8.85631 0.885251 9.39654 0.878305C9.3998 0.878264 9.40306 0.878223 9.40632 0.878183C9.6721 0.874765 9.93744 0.871342 10.2 0.867947C11.0103 0.857608 11.8134 0.847365 12.6342 0.83724C13.0582 0.831776 13.5001 0.826434 13.9388 0.821034C14.183 0.818027 14.4268 0.815005 14.6661 0.812017C14.797 0.810426 14.9296 0.808849 15.0629 0.807264C18.1233 0.7698 21.162 0.733755 24.229 0.699181C27.2845 0.664606 30.3454 0.631457 33.3972 0.599627C36.4564 0.567796 39.5102 0.537338 42.5665 0.508116C61.9632 0.32255 81.4375 0.170395 100.92 0.0751725C103.699 0.0615003 106.55 0.0491773 109.335 0.0381293C112.15 0.0270755 114.907 0.0172685 117.729 0.00888467C118.586 0.00626421 119.465 0.00380826 120.367 0.00145161Z" fill="var(--stroke-0, #747474)"/>
</svg>
