<svg preserveAspectRatio="none" width="100%" height="100%" overflow="visible" style="display: block;" viewBox="0 0 25 25" fill="none" xmlns="http://www.w3.org/2000/svg">
<g id="SVG">
<path id="Group" d="M10.625 20.1562C7.89063 20.1562 5.625 17.8906 5.625 15.1562C5.625 12.4219 7.89063 10.1562 10.625 10.1562C10.7031 10.1562 10.7812 10.1562 10.8594 10.1562L11.4063 10.2344L11.4844 10.8594V13.75L10.625 13.6719C9.76563 13.6719 8.98438 14.375 8.98438 15.3125C8.98438 16.25 9.6875 16.9531 10.625 16.9531C11.5625 16.9531 12.3438 16.25 12.3438 15.3906V4.76562H15.625L15.7031 5.3125C15.8594 6.875 17.1094 8.04687 18.6719 8.20312L19.2188 8.28125V10.9375H18.5937L18.6719 11.5625C17.5781 11.6406 16.4844 11.4063 15.7031 10.7813V15.1562C15.625 17.8906 13.4375 20.1562 10.625 20.1562ZM10.3125 11.4063C8.4375 11.5625 6.95312 13.2031 6.95312 15.1562C6.95312 17.1875 8.67187 18.9063 10.7031 18.9063C12.7344 18.9063 14.4531 17.2656 14.4531 15.1562V7.1875L15.625 8.90625C16.1719 9.76562 17.0313 10.2344 18.0469 10.3125V9.0625C16.3281 8.75 15 7.42188 14.6094 5.70313H13.6719V15.1562C13.6719 16.7187 12.3437 17.9688 10.7031 17.9688C9.14062 17.9688 7.8125 16.7187 7.8125 15.0781C7.8125 13.5937 8.90625 12.4219 10.3125 12.2656V11.4063ZM12.5 25C5.625 25 0 19.375 0 12.5C0 5.625 5.625 0 12.5 0C19.375 0 25 5.625 25 12.5C25 19.375 19.375 25 12.5 25ZM12.5 1.25C6.32812 1.25 1.25 6.32812 1.25 12.5C1.25 18.6719 6.32812 23.75 12.5 23.75C18.6719 23.75 23.75 18.6719 23.75 12.5C23.75 6.32812 18.6719 1.25 12.5 1.25Z" fill="var(--fill-0, #EFF1F4)"/>
</g>
</svg>
