<svg preserveAspectRatio="none" width="100%" height="100%" overflow="visible" style="display: block;" viewBox="0 0 24.9219 17.9688" fill="none" xmlns="http://www.w3.org/2000/svg">
<g id="Group">
<path id="Page-1" d="M12.5 17.9688C14.4531 17.9688 16.0938 17.9687 17.3438 17.8906C18.5938 17.8125 19.6094 17.7344 20.3906 17.5781C21.1719 17.5 21.7187 17.3438 22.1094 17.1875C22.5 17.0312 22.7344 16.9531 22.8906 16.7969C23.3594 16.4844 23.6719 15.9375 23.9844 15.3125C24.2188 14.6094 24.4531 13.9062 24.6094 13.2031C24.7656 12.5 24.8437 11.7188 24.8437 10.9375C24.9219 10.1562 24.9219 9.60937 24.9219 9.14062C24.9219 8.75 24.8437 8.20312 24.8437 7.42188C24.8437 6.64062 24.6875 5.85938 24.6094 5.07812C24.4531 4.21875 24.2969 3.51562 23.9844 2.73438C23.6719 1.95312 23.3594 1.48438 22.8906 1.17188C22.7344 1.01562 22.4219 0.9375 22.1094 0.78125C21.7969 0.625 21.1719 0.546875 20.3906 0.390625C19.6094 0.3125 18.5938 0.15625 17.3438 0.078125C16.0938 0 14.4531 0 12.5 0C8.28125 0 5.54687 0.15625 4.375 0.390625C3.20312 0.625 2.57812 0.859375 2.42187 1.01562C1.875 1.32812 1.40625 1.875 1.09375 2.65625C0.78125 3.4375 0.546875 4.21875 0.390625 5.07812C0.234375 5.9375 0.15625 6.79687 0.078125 7.57812C0 8.35937 0 8.82812 0 9.14062C0 9.53125 0.078125 10.0781 0.078125 10.8594C0.078125 11.6406 0.234375 12.4219 0.390625 13.2031C0.546875 13.9844 0.78125 14.7656 1.09375 15.4687C1.40625 16.1719 1.79688 16.7187 2.34375 17.0312C2.57813 17.1094 3.20312 17.3437 4.375 17.5781C5.54687 17.8125 8.28125 17.9688 12.5 17.9688ZM13.125 16.4844H12.5C8.67187 16.4844 6.17188 16.4063 5 16.1719C3.82813 15.9375 3.125 15.7813 2.96875 15.7031C2.57812 15.4688 2.26563 14.7656 1.875 13.5937C1.5625 12.5 1.40625 10.9375 1.32813 9.0625C1.32813 7.1875 1.5625 5.625 1.875 4.375C2.1875 3.125 2.65625 2.34375 3.04688 2.10938C3.20313 2.03125 3.82812 1.875 5.07812 1.64062C6.17187 1.40625 8.51563 1.32813 11.9531 1.32813H12.5781C16.4844 1.32813 19.0625 1.48438 20.2344 1.71875C21.4062 1.95313 22.1094 2.10938 22.2656 2.26563C22.5781 2.5 22.9688 3.20312 23.2031 4.45312C23.5156 5.70312 23.6719 7.1875 23.6719 9.14062C23.6719 11.0937 23.5156 12.5781 23.2031 13.6719C22.8906 14.7656 22.5781 15.4688 22.2656 15.7031C22.1094 15.7813 21.4844 15.9375 20.2344 16.1719C19.0625 16.3281 16.7187 16.4844 13.125 16.4844ZM9.92187 13.3594C10 13.3594 10 13.3594 10.0781 13.3594C10.1562 13.3594 10.1563 13.2812 10.2344 13.2812L16.3281 9.53125C16.4062 9.45312 16.5625 9.375 16.5625 9.29687C16.6406 9.21875 16.6406 9.0625 16.6406 8.98438C16.6406 8.90625 16.6406 8.75 16.5625 8.67188C16.4844 8.59375 16.4062 8.51563 16.3281 8.4375L10.2344 4.6875C10.1563 4.60937 10 4.60938 9.92187 4.60938C9.84375 4.60938 9.6875 4.60937 9.60938 4.6875C9.45313 4.6875 9.375 4.76562 9.375 4.84375C9.375 4.92187 9.29687 5.07812 9.29687 5.15625V12.6563C9.29687 12.8125 9.29687 12.8906 9.375 12.9688C9.45313 13.0469 9.53125 13.125 9.60938 13.2031C9.6875 13.2031 9.6875 13.2812 9.76562 13.2812C9.84375 13.3594 9.84375 13.3594 9.92187 13.3594ZM10.625 11.4844V6.40625L14.7656 8.98438L10.625 11.4844Z" fill="var(--fill-0, #EFF1F4)"/>
</g>
</svg>
